<svg xmlns="http://www.w3.org/2000/svg" version="1.1" xmlns:xlink="http://www.w3.org/1999/xlink" xmlns:svgjs="http://svgjs.com/svgjs" width="1440" height="560" preserveAspectRatio="none" viewBox="0 0 1440 560"><g mask="url(&quot;#SvgjsMask1038&quot;)" fill="none"><rect width="1440" height="560" x="0" y="0" fill="rgba(71, 85, 105, 1)"></rect><path d="M1229 140L1054 315" stroke-width="10" stroke="url(#SvgjsLinearGradient1039)" stroke-linecap="round" class="BottomLeft"></path><path d="M387 533L118 802" stroke-width="10" stroke="url(#SvgjsLinearGradient1040)" stroke-linecap="round" class="TopRight"></path><path d="M730 232L1069 -107" stroke-width="8" stroke="url(#SvgjsLinearGradient1039)" stroke-linecap="round" class="BottomLeft"></path><path d="M301 373L575 99" stroke-width="8" stroke="url(#SvgjsLinearGradient1039)" stroke-linecap="round" class="BottomLeft"></path><path d="M56 374L234 196" stroke-width="10" stroke="url(#SvgjsLinearGradient1039)" stroke-linecap="round" class="BottomLeft"></path><path d="M614 42L937 -281" stroke-width="10" stroke="url(#SvgjsLinearGradient1040)" stroke-linecap="round" class="TopRight"></path><path d="M736 27L934 -171" stroke-width="6" stroke="url(#SvgjsLinearGradient1040)" stroke-linecap="round" class="TopRight"></path><path d="M61 96L280 -123" stroke-width="10" stroke="url(#SvgjsLinearGradient1040)" stroke-linecap="round" class="TopRight"></path><path d="M445 338L101 682" stroke-width="8" stroke="url(#SvgjsLinearGradient1040)" stroke-linecap="round" class="TopRight"></path><path d="M726 493L406 813" stroke-width="10" stroke="url(#SvgjsLinearGradient1039)" stroke-linecap="round" class="BottomLeft"></path><path d="M108 169L516 -239" stroke-width="10" stroke="url(#SvgjsLinearGradient1040)" stroke-linecap="round" class="TopRight"></path><path d="M1059 318L716 661" stroke-width="8" stroke="url(#SvgjsLinearGradient1039)" stroke-linecap="round" class="BottomLeft"></path><path d="M1253 208L1423 38" stroke-width="6" stroke="url(#SvgjsLinearGradient1040)" stroke-linecap="round" class="TopRight"></path><path d="M671 536L910 297" stroke-width="10" stroke="url(#SvgjsLinearGradient1040)" stroke-linecap="round" class="TopRight"></path><path d="M651 339L504 486" stroke-width="8" stroke="url(#SvgjsLinearGradient1040)" stroke-linecap="round" class="TopRight"></path><path d="M1061 434L729 766" stroke-width="8" stroke="url(#SvgjsLinearGradient1040)" stroke-linecap="round" class="TopRight"></path><path d="M1192 309L1610 -109" stroke-width="6" stroke="url(#SvgjsLinearGradient1040)" stroke-linecap="round" class="TopRight"></path><path d="M190 201L477 -86" stroke-width="10" stroke="url(#SvgjsLinearGradient1039)" stroke-linecap="round" class="BottomLeft"></path><path d="M897 414L644 667" stroke-width="6" stroke="url(#SvgjsLinearGradient1039)" stroke-linecap="round" class="BottomLeft"></path><path d="M1250 20L1492 -222" stroke-width="10" stroke="url(#SvgjsLinearGradient1039)" stroke-linecap="round" class="BottomLeft"></path><path d="M301 257L23 535" stroke-width="8" stroke="url(#SvgjsLinearGradient1039)" stroke-linecap="round" class="BottomLeft"></path><path d="M1334 62L1113 283" stroke-width="6" stroke="url(#SvgjsLinearGradient1039)" stroke-linecap="round" class="BottomLeft"></path><path d="M825 386L1054 157" stroke-width="8" stroke="url(#SvgjsLinearGradient1039)" stroke-linecap="round" class="BottomLeft"></path><path d="M863 90L1020 -67" stroke-width="8" stroke="url(#SvgjsLinearGradient1039)" stroke-linecap="round" class="BottomLeft"></path><path d="M817 110L548 379" stroke-width="6" stroke="url(#SvgjsLinearGradient1039)" stroke-linecap="round" class="BottomLeft"></path><path d="M1127 297L1354 70" stroke-width="8" stroke="url(#SvgjsLinearGradient1039)" stroke-linecap="round" class="BottomLeft"></path><path d="M1406 107L996 517" stroke-width="10" stroke="url(#SvgjsLinearGradient1039)" stroke-linecap="round" class="BottomLeft"></path><path d="M455 308L283 480" stroke-width="8" stroke="url(#SvgjsLinearGradient1040)" stroke-linecap="round" class="TopRight"></path><path d="M852 408L549 711" stroke-width="10" stroke="url(#SvgjsLinearGradient1039)" stroke-linecap="round" class="BottomLeft"></path><path d="M22 442L237 227" stroke-width="6" stroke="url(#SvgjsLinearGradient1040)" stroke-linecap="round" class="TopRight"></path><path d="M1111 439L894 656" stroke-width="8" stroke="url(#SvgjsLinearGradient1040)" stroke-linecap="round" class="TopRight"></path><path d="M934 471L1273 132" stroke-width="6" stroke="url(#SvgjsLinearGradient1040)" stroke-linecap="round" class="TopRight"></path><path d="M307 145L113 339" stroke-width="6" stroke="url(#SvgjsLinearGradient1039)" stroke-linecap="round" class="BottomLeft"></path><path d="M914 271L731 454" stroke-width="8" stroke="url(#SvgjsLinearGradient1039)" stroke-linecap="round" class="BottomLeft"></path><path d="M905 223L674 454" stroke-width="8" stroke="url(#SvgjsLinearGradient1040)" stroke-linecap="round" class="TopRight"></path><path d="M46 107L274 -121" stroke-width="6" stroke="url(#SvgjsLinearGradient1039)" stroke-linecap="round" class="BottomLeft"></path><path d="M856 365L708 513" stroke-width="10" stroke="url(#SvgjsLinearGradient1039)" stroke-linecap="round" class="BottomLeft"></path><path d="M187 416L-93 696" stroke-width="10" stroke="url(#SvgjsLinearGradient1040)" stroke-linecap="round" class="TopRight"></path><path d="M458 505L846 117" stroke-width="8" stroke="url(#SvgjsLinearGradient1039)" stroke-linecap="round" class="BottomLeft"></path></g><defs><mask id="SvgjsMask1038"><rect width="1440" height="560" fill="#ffffff"></rect></mask><linearGradient x1="100%" y1="0%" x2="0%" y2="100%" id="SvgjsLinearGradient1039"><stop stop-color="rgba(245, 133, 11, 0)" offset="0"></stop><stop stop-color="rgba(245, 133, 11, 1)" offset="1"></stop></linearGradient><linearGradient x1="0%" y1="100%" x2="100%" y2="0%" id="SvgjsLinearGradient1040"><stop stop-color="rgba(245, 133, 11, 0)" offset="0"></stop><stop stop-color="rgba(245, 133, 11, 1)" offset="1"></stop></linearGradient></defs></svg>